<mxfile host="app.diagrams.net" agent="Mozilla/5.0 (Macintosh; Intel Mac OS X 10_15_7) AppleWebKit/537.36 (KHTML, like Gecko) Chrome/131.0.0.0 Safari/537.36" version="26.0.6" pages="4">
  <diagram name="DigramaFlujo" id="ldia6kbnleaDXDu5-Z36">
    <mxGraphModel dx="794" dy="432" grid="1" gridSize="10" guides="1" tooltips="1" connect="1" arrows="1" fold="1" page="1" pageScale="1" pageWidth="827" pageHeight="1169" math="0" shadow="0">
      <root>
        <mxCell id="0" />
        <mxCell id="1" parent="0" />
      </root>
    </mxGraphModel>
  </diagram>
  <diagram id="ulOyx29F1p-RNrqsoQfS" name="UML">
    <mxGraphModel dx="794" dy="432" grid="1" gridSize="10" guides="1" tooltips="1" connect="1" arrows="1" fold="1" page="1" pageScale="1" pageWidth="827" pageHeight="1169" math="0" shadow="0">
      <root>
        <mxCell id="0" />
        <mxCell id="1" parent="0" />
      </root>
    </mxGraphModel>
  </diagram>
  <diagram id="TN4L8wYoc0hF03CJmR-2" name="DigramasClases">
    <mxGraphModel dx="794" dy="432" grid="1" gridSize="10" guides="1" tooltips="1" connect="1" arrows="1" fold="1" page="1" pageScale="1" pageWidth="827" pageHeight="1169" math="0" shadow="0">
      <root>
        <mxCell id="0" />
        <mxCell id="1" parent="0" />
        <mxCell id="guS2A9HVdZ-yk42evzDF-1" value="E-commerce" style="text;html=1;align=center;verticalAlign=middle;resizable=0;points=[];autosize=1;strokeColor=none;fillColor=none;" vertex="1" parent="1">
          <mxGeometry x="350" y="48" width="90" height="30" as="geometry" />
        </mxCell>
        <mxCell id="guS2A9HVdZ-yk42evzDF-2" value="Producto" style="swimlane;fontStyle=1;align=center;verticalAlign=top;childLayout=stackLayout;horizontal=1;startSize=26;horizontalStack=0;resizeParent=1;resizeParentMax=0;resizeLast=0;collapsible=1;marginBottom=0;whiteSpace=wrap;html=1;fillColor=#dae8fc;strokeColor=#6c8ebf;" vertex="1" parent="1">
          <mxGeometry x="80" y="120" width="160" height="148" as="geometry">
            <mxRectangle x="80" y="120" width="90" height="30" as="alternateBounds" />
          </mxGeometry>
        </mxCell>
        <object label="+ Id_Producto : Int" Id="Int" id="guS2A9HVdZ-yk42evzDF-3">
          <mxCell style="text;strokeColor=none;fillColor=none;align=left;verticalAlign=top;spacingLeft=4;spacingRight=4;overflow=hidden;rotatable=0;points=[[0,0.5],[1,0.5]];portConstraint=eastwest;whiteSpace=wrap;html=1;" vertex="1" parent="guS2A9HVdZ-yk42evzDF-2">
            <mxGeometry y="26" width="160" height="22" as="geometry" />
          </mxCell>
        </object>
        <mxCell id="guS2A9HVdZ-yk42evzDF-4" value="" style="line;strokeWidth=1;fillColor=none;align=left;verticalAlign=middle;spacingTop=-1;spacingLeft=3;spacingRight=3;rotatable=0;labelPosition=right;points=[];portConstraint=eastwest;strokeColor=inherit;" vertex="1" parent="guS2A9HVdZ-yk42evzDF-2">
          <mxGeometry y="48" width="160" height="8" as="geometry" />
        </mxCell>
        <object label="+ NombreProd : str" Id="Int" id="guS2A9HVdZ-yk42evzDF-9">
          <mxCell style="text;strokeColor=none;fillColor=none;align=left;verticalAlign=top;spacingLeft=4;spacingRight=4;overflow=hidden;rotatable=0;points=[[0,0.5],[1,0.5]];portConstraint=eastwest;whiteSpace=wrap;html=1;" vertex="1" parent="guS2A9HVdZ-yk42evzDF-2">
            <mxGeometry y="56" width="160" height="22" as="geometry" />
          </mxCell>
        </object>
        <object label="+ PrecioProd : float" Id="Int" id="guS2A9HVdZ-yk42evzDF-10">
          <mxCell style="text;strokeColor=none;fillColor=none;align=left;verticalAlign=top;spacingLeft=4;spacingRight=4;overflow=hidden;rotatable=0;points=[[0,0.5],[1,0.5]];portConstraint=eastwest;whiteSpace=wrap;html=1;" vertex="1" parent="guS2A9HVdZ-yk42evzDF-2">
            <mxGeometry y="78" width="160" height="22" as="geometry" />
          </mxCell>
        </object>
        <object label="+ StockProd : Int" Id="Int" id="guS2A9HVdZ-yk42evzDF-11">
          <mxCell style="text;strokeColor=none;fillColor=none;align=left;verticalAlign=top;spacingLeft=4;spacingRight=4;overflow=hidden;rotatable=0;points=[[0,0.5],[1,0.5]];portConstraint=eastwest;whiteSpace=wrap;html=1;" vertex="1" parent="guS2A9HVdZ-yk42evzDF-2">
            <mxGeometry y="100" width="160" height="22" as="geometry" />
          </mxCell>
        </object>
        <mxCell id="guS2A9HVdZ-yk42evzDF-5" value="+ getInfo( ): str" style="text;strokeColor=#d79b00;fillColor=#ffe6cc;align=left;verticalAlign=top;spacingLeft=4;spacingRight=4;overflow=hidden;rotatable=0;points=[[0,0.5],[1,0.5]];portConstraint=eastwest;whiteSpace=wrap;html=1;" vertex="1" parent="guS2A9HVdZ-yk42evzDF-2">
          <mxGeometry y="122" width="160" height="26" as="geometry" />
        </mxCell>
        <mxCell id="guS2A9HVdZ-yk42evzDF-13" value="Cliente" style="swimlane;fontStyle=1;align=center;verticalAlign=top;childLayout=stackLayout;horizontal=1;startSize=26;horizontalStack=0;resizeParent=1;resizeParentMax=0;resizeLast=0;collapsible=1;marginBottom=0;whiteSpace=wrap;html=1;fillColor=#fff2cc;strokeColor=#d6b656;" vertex="1" parent="1">
          <mxGeometry x="310" y="120" width="160" height="180" as="geometry">
            <mxRectangle x="80" y="120" width="90" height="30" as="alternateBounds" />
          </mxGeometry>
        </mxCell>
        <object label="+ Id_Cliente : Int" Id="Int" id="guS2A9HVdZ-yk42evzDF-14">
          <mxCell style="text;strokeColor=none;fillColor=none;align=left;verticalAlign=top;spacingLeft=4;spacingRight=4;overflow=hidden;rotatable=0;points=[[0,0.5],[1,0.5]];portConstraint=eastwest;whiteSpace=wrap;html=1;" vertex="1" parent="guS2A9HVdZ-yk42evzDF-13">
            <mxGeometry y="26" width="160" height="22" as="geometry" />
          </mxCell>
        </object>
        <mxCell id="guS2A9HVdZ-yk42evzDF-15" value="" style="line;strokeWidth=1;fillColor=none;align=left;verticalAlign=middle;spacingTop=-1;spacingLeft=3;spacingRight=3;rotatable=0;labelPosition=right;points=[];portConstraint=eastwest;strokeColor=inherit;" vertex="1" parent="guS2A9HVdZ-yk42evzDF-13">
          <mxGeometry y="48" width="160" height="8" as="geometry" />
        </mxCell>
        <object label="+ NombreCliente : str" Id="Int" id="guS2A9HVdZ-yk42evzDF-16">
          <mxCell style="text;strokeColor=none;fillColor=none;align=left;verticalAlign=top;spacingLeft=4;spacingRight=4;overflow=hidden;rotatable=0;points=[[0,0.5],[1,0.5]];portConstraint=eastwest;whiteSpace=wrap;html=1;" vertex="1" parent="guS2A9HVdZ-yk42evzDF-13">
            <mxGeometry y="56" width="160" height="22" as="geometry" />
          </mxCell>
        </object>
        <object label="+ EmailCliente : str" Id="Int" id="guS2A9HVdZ-yk42evzDF-17">
          <mxCell style="text;strokeColor=none;fillColor=none;align=left;verticalAlign=top;spacingLeft=4;spacingRight=4;overflow=hidden;rotatable=0;points=[[0,0.5],[1,0.5]];portConstraint=eastwest;whiteSpace=wrap;html=1;" vertex="1" parent="guS2A9HVdZ-yk42evzDF-13">
            <mxGeometry y="78" width="160" height="22" as="geometry" />
          </mxCell>
        </object>
        <object label="+ DireccionCliente : str" Id="Int" id="guS2A9HVdZ-yk42evzDF-18">
          <mxCell style="text;strokeColor=none;fillColor=none;align=left;verticalAlign=top;spacingLeft=4;spacingRight=4;overflow=hidden;rotatable=0;points=[[0,0.5],[1,0.5]];portConstraint=eastwest;whiteSpace=wrap;html=1;" vertex="1" parent="guS2A9HVdZ-yk42evzDF-13">
            <mxGeometry y="100" width="160" height="22" as="geometry" />
          </mxCell>
        </object>
        <mxCell id="guS2A9HVdZ-yk42evzDF-19" value="+ registrarPedido(Pedido:pedido ): str" style="text;strokeColor=#d79b00;fillColor=#ffe6cc;align=left;verticalAlign=top;spacingLeft=4;spacingRight=4;overflow=hidden;rotatable=0;points=[[0,0.5],[1,0.5]];portConstraint=eastwest;whiteSpace=wrap;html=1;" vertex="1" parent="guS2A9HVdZ-yk42evzDF-13">
          <mxGeometry y="122" width="160" height="58" as="geometry" />
        </mxCell>
        <mxCell id="guS2A9HVdZ-yk42evzDF-20" value="Pedido" style="swimlane;fontStyle=1;align=center;verticalAlign=top;childLayout=stackLayout;horizontal=1;startSize=26;horizontalStack=0;resizeParent=1;resizeParentMax=0;resizeLast=0;collapsible=1;marginBottom=0;whiteSpace=wrap;html=1;fillColor=#f8cecc;strokeColor=#b85450;" vertex="1" parent="1">
          <mxGeometry x="540" y="120" width="160" height="180" as="geometry">
            <mxRectangle x="80" y="120" width="90" height="30" as="alternateBounds" />
          </mxGeometry>
        </mxCell>
        <object label="+ Id_Pedido : Int" Id="Int" id="guS2A9HVdZ-yk42evzDF-21">
          <mxCell style="text;strokeColor=none;fillColor=none;align=left;verticalAlign=top;spacingLeft=4;spacingRight=4;overflow=hidden;rotatable=0;points=[[0,0.5],[1,0.5]];portConstraint=eastwest;whiteSpace=wrap;html=1;" vertex="1" parent="guS2A9HVdZ-yk42evzDF-20">
            <mxGeometry y="26" width="160" height="22" as="geometry" />
          </mxCell>
        </object>
        <mxCell id="guS2A9HVdZ-yk42evzDF-22" value="" style="line;strokeWidth=1;fillColor=none;align=left;verticalAlign=middle;spacingTop=-1;spacingLeft=3;spacingRight=3;rotatable=0;labelPosition=right;points=[];portConstraint=eastwest;strokeColor=inherit;" vertex="1" parent="guS2A9HVdZ-yk42evzDF-20">
          <mxGeometry y="48" width="160" height="8" as="geometry" />
        </mxCell>
        <object label="+ NombreCliente : str" Id="Int" id="guS2A9HVdZ-yk42evzDF-23">
          <mxCell style="text;strokeColor=none;fillColor=none;align=left;verticalAlign=top;spacingLeft=4;spacingRight=4;overflow=hidden;rotatable=0;points=[[0,0.5],[1,0.5]];portConstraint=eastwest;whiteSpace=wrap;html=1;" vertex="1" parent="guS2A9HVdZ-yk42evzDF-20">
            <mxGeometry y="56" width="160" height="22" as="geometry" />
          </mxCell>
        </object>
        <object label="+ Productos : Producto[ ]" Id="Int" id="guS2A9HVdZ-yk42evzDF-24">
          <mxCell style="text;strokeColor=none;fillColor=none;align=left;verticalAlign=top;spacingLeft=4;spacingRight=4;overflow=hidden;rotatable=0;points=[[0,0.5],[1,0.5]];portConstraint=eastwest;whiteSpace=wrap;html=1;" vertex="1" parent="guS2A9HVdZ-yk42evzDF-20">
            <mxGeometry y="78" width="160" height="22" as="geometry" />
          </mxCell>
        </object>
        <object label="+ Total : float" Id="Int" id="guS2A9HVdZ-yk42evzDF-25">
          <mxCell style="text;strokeColor=none;fillColor=none;align=left;verticalAlign=top;spacingLeft=4;spacingRight=4;overflow=hidden;rotatable=0;points=[[0,0.5],[1,0.5]];portConstraint=eastwest;whiteSpace=wrap;html=1;" vertex="1" parent="guS2A9HVdZ-yk42evzDF-20">
            <mxGeometry y="100" width="160" height="22" as="geometry" />
          </mxCell>
        </object>
        <mxCell id="guS2A9HVdZ-yk42evzDF-26" value="+ CalcularTotal( ) : float" style="text;strokeColor=#d79b00;fillColor=#ffe6cc;align=left;verticalAlign=top;spacingLeft=4;spacingRight=4;overflow=hidden;rotatable=0;points=[[0,0.5],[1,0.5]];portConstraint=eastwest;whiteSpace=wrap;html=1;" vertex="1" parent="guS2A9HVdZ-yk42evzDF-20">
          <mxGeometry y="122" width="160" height="28" as="geometry" />
        </mxCell>
        <mxCell id="guS2A9HVdZ-yk42evzDF-27" value="+ getInfoPedido( ) : str&amp;nbsp;" style="text;strokeColor=#d79b00;fillColor=#ffe6cc;align=left;verticalAlign=top;spacingLeft=4;spacingRight=4;overflow=hidden;rotatable=0;points=[[0,0.5],[1,0.5]];portConstraint=eastwest;whiteSpace=wrap;html=1;" vertex="1" parent="guS2A9HVdZ-yk42evzDF-20">
          <mxGeometry y="150" width="160" height="30" as="geometry" />
        </mxCell>
        <mxCell id="guS2A9HVdZ-yk42evzDF-28" value="Carrito" style="swimlane;fontStyle=1;align=center;verticalAlign=top;childLayout=stackLayout;horizontal=1;startSize=26;horizontalStack=0;resizeParent=1;resizeParentMax=0;resizeLast=0;collapsible=1;marginBottom=0;whiteSpace=wrap;html=1;" vertex="1" parent="1">
          <mxGeometry x="80" y="330" width="250" height="190" as="geometry" />
        </mxCell>
        <mxCell id="guS2A9HVdZ-yk42evzDF-29" value="+ Cliente : Cliente" style="text;strokeColor=none;fillColor=none;align=left;verticalAlign=top;spacingLeft=4;spacingRight=4;overflow=hidden;rotatable=0;points=[[0,0.5],[1,0.5]];portConstraint=eastwest;whiteSpace=wrap;html=1;" vertex="1" parent="guS2A9HVdZ-yk42evzDF-28">
          <mxGeometry y="26" width="250" height="26" as="geometry" />
        </mxCell>
        <mxCell id="guS2A9HVdZ-yk42evzDF-30" value="" style="line;strokeWidth=1;fillColor=none;align=left;verticalAlign=middle;spacingTop=-1;spacingLeft=3;spacingRight=3;rotatable=0;labelPosition=right;points=[];portConstraint=eastwest;strokeColor=inherit;" vertex="1" parent="guS2A9HVdZ-yk42evzDF-28">
          <mxGeometry y="52" width="250" height="8" as="geometry" />
        </mxCell>
        <mxCell id="guS2A9HVdZ-yk42evzDF-32" value="+ Productos: Producto[ ]" style="text;strokeColor=none;fillColor=none;align=left;verticalAlign=top;spacingLeft=4;spacingRight=4;overflow=hidden;rotatable=0;points=[[0,0.5],[1,0.5]];portConstraint=eastwest;whiteSpace=wrap;html=1;" vertex="1" parent="guS2A9HVdZ-yk42evzDF-28">
          <mxGeometry y="60" width="250" height="26" as="geometry" />
        </mxCell>
        <mxCell id="guS2A9HVdZ-yk42evzDF-31" value="+ AgregarProducto(Producto:Producto)" style="text;strokeColor=#d79b00;fillColor=#ffe6cc;align=left;verticalAlign=top;spacingLeft=4;spacingRight=4;overflow=hidden;rotatable=0;points=[[0,0.5],[1,0.5]];portConstraint=eastwest;whiteSpace=wrap;html=1;" vertex="1" parent="guS2A9HVdZ-yk42evzDF-28">
          <mxGeometry y="86" width="250" height="26" as="geometry" />
        </mxCell>
        <mxCell id="guS2A9HVdZ-yk42evzDF-34" value="+ EliminarProducto(Producto:Producto)" style="text;strokeColor=#d79b00;fillColor=#ffe6cc;align=left;verticalAlign=top;spacingLeft=4;spacingRight=4;overflow=hidden;rotatable=0;points=[[0,0.5],[1,0.5]];portConstraint=eastwest;whiteSpace=wrap;html=1;" vertex="1" parent="guS2A9HVdZ-yk42evzDF-28">
          <mxGeometry y="112" width="250" height="26" as="geometry" />
        </mxCell>
        <mxCell id="guS2A9HVdZ-yk42evzDF-35" value="+ VaciarCarrito( ):&amp;nbsp;" style="text;strokeColor=#d79b00;fillColor=#ffe6cc;align=left;verticalAlign=top;spacingLeft=4;spacingRight=4;overflow=hidden;rotatable=0;points=[[0,0.5],[1,0.5]];portConstraint=eastwest;whiteSpace=wrap;html=1;" vertex="1" parent="guS2A9HVdZ-yk42evzDF-28">
          <mxGeometry y="138" width="250" height="26" as="geometry" />
        </mxCell>
        <mxCell id="guS2A9HVdZ-yk42evzDF-36" value="+ getTotal( ): float" style="text;strokeColor=#d79b00;fillColor=#ffe6cc;align=left;verticalAlign=top;spacingLeft=4;spacingRight=4;overflow=hidden;rotatable=0;points=[[0,0.5],[1,0.5]];portConstraint=eastwest;whiteSpace=wrap;html=1;" vertex="1" parent="guS2A9HVdZ-yk42evzDF-28">
          <mxGeometry y="164" width="250" height="26" as="geometry" />
        </mxCell>
      </root>
    </mxGraphModel>
  </diagram>
  <diagram id="KZ1dqAvDkKY5kbeJOamN" name="DiagrmasCasosUso">
    <mxGraphModel dx="794" dy="432" grid="1" gridSize="10" guides="1" tooltips="1" connect="1" arrows="1" fold="1" page="1" pageScale="1" pageWidth="827" pageHeight="1169" math="0" shadow="0">
      <root>
        <mxCell id="0" />
        <mxCell id="1" parent="0" />
      </root>
    </mxGraphModel>
  </diagram>
</mxfile>
